<?xml version="1.0" standalone="no"?>
<!DOCTYPE svg PUBLIC "-//W3C//DTD SVG 20010904//EN"
 "http://www.w3.org/TR/2001/REC-SVG-20010904/DTD/svg10.dtd">
<svg version="1.0" xmlns="http://www.w3.org/2000/svg"
 width="200.000000pt" height="200.000000pt" viewBox="0 0 200.000000 200.000000"
 preserveAspectRatio="xMidYMid meet">
<metadata>
Created by potrace 1.14, written by Peter Selinger 2001-2017
</metadata>
<g transform="translate(0.000000,200.000000) scale(0.100000,-0.100000)"
fill="#000000" stroke="none">
<path d="M897 1941 c-10 -4 -18 -10 -18 -14 1 -4 1 -8 0 -9 0 -2 -2 -12 -3
-23 -2 -11 -8 -45 -15 -75 -6 -30 -13 -66 -16 -79 -6 -33 -20 -46 -50 -49 -14
-1 -43 -11 -65 -22 -22 -11 -40 -18 -40 -15 0 3 -11 -2 -24 -10 -19 -13 -28
-14 -50 -4 -14 7 -26 16 -26 21 0 5 -4 6 -10 3 -5 -3 -10 -2 -10 4 0 6 -15 17
-34 26 -18 9 -43 25 -55 36 -11 11 -21 16 -21 12 0 -4 -4 -3 -8 4 -13 21 -45
2 -110 -68 l-64 -67 27 -49 c15 -26 30 -50 34 -53 6 -5 24 -35 47 -79 11 -21
10 -28 -5 -50 -24 -34 -56 -103 -79 -170 -10 -30 -25 -55 -33 -57 -107 -16
-203 -42 -214 -58 -6 -7 -10 -49 -9 -92 2 -112 3 -116 14 -109 6 3 10 1 10 -5
0 -7 6 -10 13 -7 6 2 19 1 28 -4 9 -5 32 -11 50 -14 86 -13 112 -21 120 -35
10 -20 21 -51 25 -73 2 -9 17 -44 34 -77 16 -33 30 -65 30 -72 0 -6 -19 -43
-42 -81 -24 -37 -51 -82 -61 -98 l-17 -30 71 -67 c39 -36 77 -67 85 -68 15 -2
103 51 116 70 4 6 8 7 8 3 0 -4 16 3 35 16 l36 24 52 -26 c29 -14 54 -29 57
-32 3 -3 29 -12 58 -20 56 -14 95 -48 85 -75 -3 -8 0 -27 6 -42 6 -15 13 -44
15 -64 8 -70 13 -73 125 -74 81 -2 101 1 101 12 0 8 4 14 8 14 5 0 9 6 9 13 1
11 5 31 18 87 3 14 9 43 13 65 7 39 9 41 78 65 38 14 92 37 120 51 l49 27 70
-46 c39 -25 84 -53 101 -62 l30 -18 76 74 76 74 -23 34 c-12 18 -35 55 -51 82
-16 27 -34 55 -41 62 -16 16 -17 34 -2 49 6 6 11 17 13 24 1 8 9 28 18 44 16
30 43 115 40 127 -3 13 24 26 68 32 25 3 65 12 90 20 25 7 48 14 53 14 33 4
38 19 35 116 l-3 98 -37 13 c-21 7 -38 11 -38 9 0 -2 -10 0 -23 5 -13 5 -41
12 -63 16 -21 4 -46 8 -54 9 -16 3 -31 30 -50 89 -6 21 -27 65 -46 98 -19 34
-34 66 -34 72 0 7 21 44 46 82 76 115 76 111 -6 194 -38 39 -73 71 -76 71 -3
0 -26 -13 -51 -30 -24 -16 -48 -30 -54 -30 -5 0 -9 -4 -9 -10 0 -5 -7 -10 -15
-10 -8 0 -15 -4 -15 -8 0 -5 -15 -15 -32 -24 -35 -16 -37 -16 -126 24 -24 10
-57 20 -73 21 -23 2 -31 8 -35 27 -3 14 -10 45 -15 70 -6 25 -13 54 -15 65 -3
11 -7 31 -10 45 -3 14 -10 29 -15 35 -11 11 -174 16 -202 6z m219 -322 c11 -4
34 -9 50 -12 107 -17 276 -137 352 -249 9 -13 18 -25 21 -28 9 -8 61 -117 66
-137 2 -10 10 -43 17 -73 13 -54 15 -177 4 -235 -11 -58 -30 -130 -35 -135 -4
-3 -15 -23 -26 -45 -36 -72 -151 -215 -174 -215 -4 0 -17 -9 -28 -19 -29 -28
-128 -75 -198 -96 -93 -28 -282 -25 -364 7 -14 5 -27 9 -29 8 -2 -1 -14 6 -28
14 -13 9 -24 14 -24 11 0 -4 -12 3 -26 14 -15 12 -31 21 -35 21 -13 0 -47 29
-119 100 -118 119 -182 275 -180 440 2 105 5 140 11 140 4 0 10 17 14 38 10
56 74 180 115 224 21 21 35 38 33 38 -3 0 22 22 54 50 32 27 61 50 65 50 4 0
16 7 25 15 10 8 23 15 28 16 6 0 24 9 40 19 17 10 44 21 60 24 17 4 43 9 60
12 16 3 32 7 35 10 7 8 192 2 216 -7z"/>
<path d="M949 1437 c-4 -103 -2 -573 3 -587 5 -15 15 -19 42 -16 20 1 38 5 42
8 8 9 9 323 0 336 -3 6 -2 13 3 17 7 3 7 15 1 29 -5 13 -7 26 -5 28 4 4 8 114
6 169 -1 24 -5 27 -46 27 -29 1 -45 -3 -46 -11z"/>
<path d="M1229 1291 c-33 -38 -30 -50 24 -104 75 -74 103 -139 101 -232 -1
-95 -36 -171 -107 -238 -71 -66 -139 -91 -255 -93 -50 -1 -95 2 -98 7 -3 5 -9
7 -14 4 -5 -3 -11 -1 -15 5 -3 5 -17 10 -31 10 -13 0 -24 4 -24 9 0 5 -8 12
-19 16 -26 8 -108 89 -116 114 -3 12 -10 21 -13 21 -12 0 -35 90 -35 139 -1
99 31 172 109 247 l42 41 -20 31 c-11 18 -25 32 -31 32 -16 0 -97 -75 -97 -89
0 -6 -4 -11 -9 -11 -18 0 -63 -93 -77 -160 -14 -67 -13 -147 2 -171 4 -7 8
-19 9 -28 3 -35 18 -71 28 -71 6 0 7 -3 4 -7 -7 -7 56 -90 85 -111 9 -7 23
-18 30 -26 49 -48 188 -97 281 -97 56 0 126 9 142 19 6 4 21 8 35 10 14 2 27
7 28 13 2 5 10 9 18 9 8 0 14 5 14 11 0 5 5 7 10 4 6 -3 10 -1 10 4 0 6 6 11
13 11 11 0 82 65 115 105 38 45 74 147 78 218 6 126 -30 217 -126 318 -50 52
-73 62 -91 40z"/>
</g>
</svg>
