<svg width="227" height="228" viewBox="0 0 227 228" fill="none" xmlns="http://www.w3.org/2000/svg">
<path fill-rule="evenodd" clip-rule="evenodd" d="M113 32.6074C68.2922 32.6074 32 69.0688 32 114.107C32 159.146 68.2922 195.607 113 195.607C157.708 195.607 194 159.146 194 114.107C194 69.0688 157.708 32.6074 113 32.6074ZM22 114.107C22 63.6007 62.7148 22.6074 113 22.6074C163.285 22.6074 204 63.6007 204 114.107C204 164.614 163.285 205.607 113 205.607C62.7148 205.607 22 164.614 22 114.107Z" fill="#2A3D65"/>
<path d="M125.99 0.607361L131.5 30.1074H94L100.01 0.607361H125.99Z" fill="#2A3D65"/>
<path d="M99.5096 227.107L94 197.607H131.5L125.49 227.107H99.5096Z" fill="#2A3D65"/>
<path d="M226.5 126.598L197 132.107V94.6074L226.5 100.617V126.598Z" fill="#2A3D65"/>
<path d="M41.6206 24.5032L66.3762 41.467L39.8596 67.9835L23.2495 42.8744L41.6206 24.5032Z" fill="#2A3D65"/>
<path d="M184.755 204.088L160 187.124L186.516 160.607L203.127 185.717L184.755 204.088Z" fill="#2A3D65"/>
<path d="M22.896 184.363L39.8597 159.607L66.3763 186.124L41.2671 202.734L22.896 184.363Z" fill="#2A3D65"/>
<path d="M203.48 43.228L186.516 67.9835L160 41.467L185.109 24.8568L203.48 43.228Z" fill="#2A3D65"/>
<path d="M0 100.117L29.5 94.6074L29.5 132.107L0 126.098L0 100.117Z" fill="#2A3D65"/>
<path fill-rule="evenodd" clip-rule="evenodd" d="M107 132.607V59.6074H118V132.607H107Z" fill="#2A3D65"/>
<path fill-rule="evenodd" clip-rule="evenodd" d="M86.7826 85.5366L80.7858 77.5408C67.6669 86.7351 59 101.534 59 118.607C59 147.323 83.5186 169.607 112.5 169.607C141.481 169.607 166 147.323 166 118.607C166 100.862 156.637 85.573 142.644 76.4808L136.027 84.1156C148.043 91.4118 156 104.134 156 118.607C156 141.251 136.524 159.607 112.5 159.607C88.4756 159.607 69 141.251 69 118.607C69 105.032 75.9996 92.9984 86.7826 85.5366Z" fill="#2A3D65"/>
</svg>
