<svg version="1.1" id="Layer_1" xmlns="http://www.w3.org/2000/svg" xmlns:xlink="http://www.w3.org/1999/xlink" x="0px" y="0px"
	 width="100%" viewBox="0 0 200 200" enable-background="new 0 0 200 200" xml:space="preserve">
<path fill="#000000" opacity="1.000000" stroke="none" 
	d="
M1.000000,83.000000 
	C1.000000,55.333340 1.000000,28.166679 1.000000,1.000015 
	C67.666649,1.000010 134.333298,1.000010 200.999954,1.000005 
	C200.999969,67.666626 200.999969,134.333252 200.999985,200.999908 
	C134.333389,200.999939 67.666779,200.999939 1.000081,200.999969 
	C1.000000,161.833328 1.000000,122.666664 1.000000,83.000000 
M84.834854,28.889517 
	C84.834854,28.889517 84.866905,28.819273 84.194252,29.127018 
	C82.932190,29.710182 81.689224,30.339979 80.403992,30.866585 
	C77.901466,31.891951 75.375252,32.859493 72.925552,33.863892 
	C72.925552,33.863892 72.899857,33.800995 72.184731,33.989201 
	C67.457932,36.888824 62.740749,37.176617 57.720612,33.322140 
	C53.142540,30.187363 48.564465,27.052586 43.575222,23.636267 
	C41.273727,27.987814 34.894371,28.096270 34.419323,34.315601 
	C28.827816,37.858013 28.170023,41.136997 32.131302,46.329674 
	C33.210323,47.744118 34.554188,48.956520 35.789268,50.177734 
	C35.789268,50.177734 35.705299,50.165337 35.868370,50.886040 
	C38.764763,56.800205 39.746849,62.441288 35.245911,68.318352 
	C33.474655,70.631157 33.170135,74.067253 32.076466,77.727837 
	C32.014091,78.471001 31.951719,79.214165 31.354712,80.405220 
	C30.161715,81.869942 29.232811,84.168144 27.726898,84.645302 
	C22.939514,86.162193 17.937162,87.000656 12.228827,88.070442 
	C5.040882,89.430511 5.039027,89.430504 5.020700,96.506599 
	C5.011207,100.171829 5.471746,103.912735 4.887115,107.483086 
	C4.162015,111.911263 6.986155,112.940079 9.965096,113.687042 
	C14.516038,114.828178 19.179333,115.519951 23.792833,116.413307 
	C27.151272,117.063644 29.188328,118.612892 29.962381,122.406769 
	C30.765326,126.342262 32.794472,130.023972 34.248600,133.831482 
	C35.212582,136.355560 37.431332,139.349579 36.759449,141.351700 
	C35.359657,145.522903 32.829548,149.513687 30.014565,152.967957 
	C24.815334,159.347916 24.638216,161.339890 30.422256,167.138062 
	C32.657238,169.378510 34.974056,171.542770 37.119919,173.865250 
	C39.725033,176.684769 42.269634,176.821579 45.395061,174.558594 
	C48.986031,171.958527 52.779556,169.619095 56.601948,167.364563 
	C59.128292,165.874481 61.514000,164.644775 64.881653,166.339584 
	C70.106674,168.969101 75.682602,170.978973 81.254631,172.810959 
	C84.379868,173.838486 85.432022,175.927658 85.968903,178.701492 
	C86.746689,182.719971 87.622131,186.725708 88.214531,190.772217 
	C88.862991,195.201599 90.839005,197.279266 95.661018,196.639542 
	C98.738243,196.231308 101.975845,196.623032 105.094139,197.024384 
	C110.428055,197.710907 113.106232,195.312622 114.199150,190.270981 
	C115.375381,184.845047 116.851288,179.484100 118.820572,173.729294 
	C120.691742,173.141388 122.660912,172.759933 124.415749,171.926956 
	C129.716309,169.410858 134.933655,166.719452 140.577179,164.096893 
	C140.577179,164.096893 140.967911,164.145264 141.402756,164.649689 
	C146.524338,168.213776 151.583389,171.872894 156.794067,175.301559 
	C159.367935,176.995178 161.992935,176.980713 164.362259,174.486969 
	C167.728683,170.943771 171.439972,167.707153 174.579224,163.981674 
	C175.560928,162.816650 175.891861,160.172348 175.262344,158.770081 
	C173.857529,155.640808 171.782013,152.779846 169.762573,149.965408 
	C163.692810,141.506088 162.811188,141.042755 168.111404,133.008072 
	C168.720795,132.084290 168.862534,130.859863 169.269547,129.793335 
	C170.866272,125.609245 172.482407,121.432571 174.721542,117.126495 
	C179.194992,116.135384 183.668442,115.144272 188.758057,114.009499 
	C191.995224,112.796646 196.939758,113.993164 196.938995,108.211311 
	C196.938370,103.404350 197.146103,98.582657 196.806946,93.799728 
	C196.709991,92.432343 195.252090,90.333153 194.037308,90.012459 
	C187.788284,88.362816 181.415207,87.183113 174.677246,85.268761 
	C173.603592,83.772041 172.332779,82.377640 171.493057,80.759521 
	C168.928116,75.816910 166.529068,70.788216 164.028229,65.426819 
	C164.028229,65.426819 163.971344,65.063156 163.859589,64.337036 
	C161.768967,61.547600 161.590485,59.016331 164.027069,56.099430 
	C165.721512,54.070942 166.619354,51.377033 168.255875,48.411678 
	C170.137177,45.790176 172.018478,43.168674 174.212662,40.111198 
	C171.469910,37.503250 168.953400,35.125278 166.453094,32.730392 
	C156.462769,23.161255 156.460434,23.153540 145.189209,31.356573 
	C144.680649,31.726700 144.371429,32.370739 143.388031,33.281803 
	C140.577545,34.557587 137.767075,35.833370 134.574982,37.024677 
	C134.574982,37.024677 134.188370,36.967247 133.759613,36.375023 
	C128.176102,34.254150 122.592583,32.133274 116.979286,29.176729 
	C115.367752,22.433668 113.756218,15.690608 112.050758,8.274799 
	C109.712776,7.904787 107.374786,7.534775 104.188766,7.067962 
	C102.769081,7.107368 101.349388,7.146775 99.029686,7.087157 
	C96.765366,7.087935 94.497154,7.172945 92.237686,7.068633 
	C89.268280,6.931545 88.605064,8.434295 89.057877,11.374549 
	C89.057877,11.374549 88.942795,11.773570 88.330017,12.151529 
	C87.968269,14.093290 87.606529,16.035051 87.123520,18.708374 
	C87.052803,19.446348 86.982086,20.184320 86.330643,21.422745 
	C85.808662,23.900919 85.286682,26.379093 84.834854,28.889517 
z"/>
<path fill="#2C3F64" opacity="1.000000" stroke="none" 
	d="
M86.911369,20.922295 
	C86.982086,20.184320 87.052803,19.446348 87.443550,18.104992 
	C88.156654,15.592262 88.549721,13.682916 88.942795,11.773570 
	C88.942795,11.773570 89.057877,11.374549 89.438263,11.027479 
	C93.189003,9.515667 96.559357,8.350924 99.929703,7.186181 
	C101.349388,7.146775 102.769081,7.107368 104.781555,7.295663 
	C107.631119,7.998093 109.887901,8.472820 112.144684,8.947548 
	C113.756218,15.690608 115.367752,22.433668 116.934875,29.863270 
	C117.405884,31.310240 117.779839,32.555859 118.459244,32.753975 
	C123.668839,34.273094 128.937836,35.588531 134.188370,36.967247 
	C134.188370,36.967247 134.574982,37.024677 134.973602,37.327057 
	C140.957642,40.500340 142.747528,39.513023 143.969376,32.887199 
	C144.371429,32.370739 144.680649,31.726700 145.189209,31.356573 
	C156.460434,23.153540 156.462769,23.161255 166.453094,32.730392 
	C168.953400,35.125278 171.469910,37.503250 174.212662,40.111198 
	C172.018478,43.168674 170.137177,45.790176 167.722519,48.756351 
	C165.467377,50.790241 163.345535,52.229286 162.102142,54.217659 
	C158.936447,59.280052 159.621964,62.334095 163.971344,65.063156 
	C163.971344,65.063156 164.028229,65.426819 164.042114,66.039841 
	C165.385773,72.081085 166.715530,77.509315 167.932953,83.184219 
	C167.518204,84.631310 167.215790,85.831718 166.571091,86.948524 
	C164.837082,86.555832 163.445374,86.246750 162.009521,85.628265 
	C161.677689,84.545486 161.389999,83.772118 161.244965,82.864777 
	C161.196213,82.183632 161.004807,81.636452 160.837860,81.068375 
	C160.862305,81.047478 160.876297,81.110283 160.956360,80.729225 
	C160.945786,78.069115 161.617294,75.359680 160.619583,73.592812 
	C157.783035,68.569466 154.604370,63.652943 150.950439,59.194218 
	C141.201370,47.297863 128.298935,40.451099 113.447212,37.149464 
	C112.066261,36.842468 110.418556,37.735382 108.435638,38.047356 
	C103.045624,38.032269 98.114685,38.040989 92.865402,38.142174 
	C91.968788,38.551708 91.390518,38.868778 90.626404,39.136627 
	C90.440559,39.087406 90.064163,39.008869 89.810699,39.005543 
	C89.388382,38.995850 89.219513,38.989479 88.806305,38.993637 
	C88.561966,39.004166 88.076210,39.061562 87.718185,38.900970 
	C85.402061,38.614475 83.036400,37.717209 81.557632,38.498528 
	C75.700890,41.592987 68.115356,41.414467 63.907139,47.731468 
	C63.370148,48.537552 61.689056,48.488834 60.857075,49.206188 
	C55.779491,53.584213 48.860100,56.616211 48.986835,64.962898 
	C48.986500,64.996346 48.920162,64.987694 48.580605,65.058350 
	C46.165966,67.435631 44.090885,69.742256 41.727203,72.168304 
	C40.163731,72.704948 38.888855,73.122177 36.210266,73.998810 
	C37.739208,70.053192 38.539516,67.408867 39.753468,64.970474 
	C42.671055,59.110104 41.048145,52.877270 35.705299,50.165337 
	C35.705299,50.165337 35.789268,50.177734 35.803806,49.811867 
	C35.549202,44.308239 35.280060,39.170479 35.010918,34.032715 
	C34.894371,28.096270 41.273727,27.987814 43.575222,23.636267 
	C48.564465,27.052586 53.142540,30.187363 57.834061,33.854908 
	C58.346462,37.300804 59.209232,40.706871 62.765869,39.621235 
	C66.397675,38.512653 69.542076,35.807301 72.899857,33.800995 
	C72.899857,33.800995 72.925552,33.863892 73.336098,33.897823 
	C77.937035,33.279564 83.405388,35.407089 84.866905,28.819273 
	C84.866905,28.819273 84.834854,28.889517 85.152672,28.809114 
	C89.100510,26.707937 89.581146,24.105862 86.911369,20.922295 
z"/>
<path fill="#2F4161" opacity="1.000000" stroke="none" 
	d="
M118.196442,174.094788 
	C116.851288,179.484100 115.375381,184.845047 114.199150,190.270981 
	C113.106232,195.312622 110.428055,197.710907 105.094139,197.024384 
	C101.975845,196.623032 98.738243,196.231308 95.661018,196.639542 
	C90.839005,197.279266 88.862991,195.201599 88.214531,190.772217 
	C87.622131,186.725708 86.746689,182.719971 85.968903,178.701492 
	C85.432022,175.927658 84.379868,173.838486 81.254631,172.810959 
	C75.682602,170.978973 70.106674,168.969101 64.881653,166.339584 
	C61.514000,164.644775 59.128292,165.874481 56.601948,167.364563 
	C52.779556,169.619095 48.986031,171.958527 45.395061,174.558594 
	C42.269634,176.821579 39.725033,176.684769 37.119919,173.865250 
	C34.974056,171.542770 32.657238,169.378510 30.422256,167.138062 
	C24.638216,161.339890 24.815334,159.347916 30.014565,152.967957 
	C32.829548,149.513687 35.359657,145.522903 36.759449,141.351700 
	C37.431332,139.349579 35.212582,136.355560 34.248600,133.831482 
	C32.794472,130.023972 30.765326,126.342262 29.962381,122.406769 
	C29.188328,118.612892 27.151272,117.063644 23.792833,116.413307 
	C19.179333,115.519951 14.516038,114.828178 9.965096,113.687042 
	C6.986155,112.940079 4.162015,111.911263 4.887115,107.483086 
	C5.471746,103.912735 5.011207,100.171829 5.020700,96.506599 
	C5.039027,89.430504 5.040882,89.430511 12.819558,88.277161 
	C13.940117,88.984711 14.469944,89.485550 14.714154,90.088516 
	C12.322943,90.875603 8.773761,91.107513 8.389284,92.332611 
	C7.342002,95.669693 6.937536,99.574219 7.657629,102.960609 
	C8.077464,104.934975 11.806696,106.001923 12.888817,108.080177 
	C15.397319,112.897804 19.475815,113.040833 23.923216,113.037666 
	C25.701372,113.036400 27.850397,112.880951 29.190580,113.765450 
	C33.717224,116.752922 33.591640,116.917007 34.341778,111.378311 
	C34.450954,110.572189 34.795719,109.797981 35.189156,109.322159 
	C36.601719,112.091194 37.856590,114.547066 39.080147,116.980881 
	C39.048824,116.958832 39.092991,116.896233 39.072617,117.329491 
	C40.225067,122.682022 41.128777,127.691765 42.733681,132.465775 
	C43.219055,133.909592 45.647041,134.700333 47.458122,135.997467 
	C48.096939,136.538620 48.558949,136.811600 48.814793,137.215240 
	C56.981209,150.099030 68.379547,158.577377 83.121895,162.589508 
	C87.231941,163.708084 91.273331,165.078873 94.826340,166.384857 
	C87.261032,165.754669 80.215614,165.073593 73.170189,164.392502 
	C73.035706,165.067520 72.901215,165.742523 72.766724,166.417542 
	C74.316154,167.117722 75.808746,168.018661 77.426712,168.476761 
	C80.922920,169.466690 85.795807,169.140701 87.657104,171.384262 
	C89.609306,173.737411 88.298698,178.561279 89.151154,182.129257 
	C90.005890,185.706787 90.784195,190.398865 93.318855,192.275497 
	C101.271439,198.163528 110.823647,193.347992 112.683441,183.861023 
	C113.711342,178.617615 109.928192,177.633987 106.877167,175.621124 
	C106.955246,175.120590 107.033318,174.620056 107.111397,174.119507 
	C110.394791,173.747177 113.678192,173.374832 117.162537,173.189972 
	C117.641136,173.616547 117.918785,173.855667 118.196442,174.094788 
z"/>
<path fill="#2D4064" opacity="1.000000" stroke="none" 
	d="
M140.967911,164.145264 
	C140.967911,164.145264 140.577179,164.096893 140.046310,164.020782 
	C135.982376,164.634048 132.414200,165.181900 128.924805,166.047318 
	C124.189537,167.221741 122.638443,166.189545 122.601524,161.352417 
	C122.824516,161.403595 122.942383,161.845734 123.363098,161.839691 
	C125.755127,161.587555 127.724419,161.323730 129.698120,161.098679 
	C135.983170,160.382019 143.582825,153.462769 145.274536,147.010590 
	C146.001175,146.555786 146.469528,146.226364 147.192047,145.965424 
	C155.758133,140.927322 160.808380,133.846878 160.943085,123.403992 
	C161.342255,121.362114 161.714752,119.691757 162.421021,117.908134 
	C163.501144,115.873535 164.247482,113.952194 165.389923,112.008598 
	C171.682663,111.261856 170.242630,107.116043 169.162064,103.817734 
	C167.847122,99.804008 168.679352,97.124969 171.744232,94.218246 
	C173.517273,92.536682 173.958679,89.451027 175.019424,86.707687 
	C175.054779,86.225166 175.070099,86.032249 175.085434,85.839325 
	C181.415207,87.183113 187.788284,88.362816 194.037308,90.012459 
	C195.252090,90.333153 196.709991,92.432343 196.806946,93.799728 
	C197.146103,98.582657 196.938370,103.404350 196.938995,108.211311 
	C196.939758,113.993164 191.995224,112.796646 188.094940,113.898964 
	C182.947784,114.523483 178.463760,115.258530 173.635422,116.066216 
	C170.955078,119.134109 168.306808,121.945015 166.391418,125.188667 
	C165.087830,127.396240 165.440842,130.677322 163.963074,132.670044 
	C158.001190,140.709381 163.405472,147.020996 167.419846,152.715225 
	C172.775269,160.311661 173.283829,161.918869 166.584503,168.039246 
	C160.905807,173.227203 159.778442,173.618820 153.096161,169.649551 
	C149.888687,167.744308 147.307419,164.708633 144.654739,161.978729 
	C143.387329,160.674408 142.614548,158.889465 141.617737,157.322205 
	C141.292465,159.110855 140.929062,160.893951 140.668304,162.691956 
	C140.601532,163.152222 140.859253,163.659561 140.967911,164.145264 
z"/>
<path fill="#2A3E66" opacity="1.000000" stroke="none" 
	d="
M35.031471,109.009003 
	C34.795719,109.797981 34.450954,110.572189 34.341778,111.378311 
	C33.591640,116.917007 33.717224,116.752922 29.190580,113.765450 
	C27.850397,112.880951 25.701372,113.036400 23.923216,113.037666 
	C19.475815,113.040833 15.397319,112.897804 12.888817,108.080177 
	C11.806696,106.001923 8.077464,104.934975 7.657629,102.960609 
	C6.937536,99.574219 7.342002,95.669693 8.389284,92.332611 
	C8.773761,91.107513 12.322943,90.875603 15.047462,90.082550 
	C16.110741,89.966881 16.555094,89.959297 17.348156,89.941551 
	C18.797134,89.616867 19.897406,89.302353 21.410866,88.984009 
	C29.522959,88.536041 32.702564,85.685738 31.889347,79.957329 
	C31.951719,79.214165 32.014091,78.471001 32.453110,77.464447 
	C33.912170,80.461243 34.994587,83.721436 36.060959,87.243973 
	C36.035412,87.680984 36.025913,87.855652 35.751640,88.193939 
	C35.001755,89.243202 34.516640,90.128838 34.023575,91.438393 
	C34.354576,96.242920 34.693535,100.623520 35.033134,105.404388 
	C35.033005,106.872772 35.032238,107.940887 35.031471,109.009003 
z"/>
<path fill="#2F425F" opacity="1.000000" stroke="none" 
	d="
M141.185333,164.397476 
	C140.859253,163.659561 140.601532,163.152222 140.668304,162.691956 
	C140.929062,160.893951 141.292465,159.110855 141.617737,157.322205 
	C142.614548,158.889465 143.387329,160.674408 144.654739,161.978729 
	C147.307419,164.708633 149.888687,167.744308 153.096161,169.649551 
	C159.778442,173.618820 160.905807,173.227203 166.584503,168.039246 
	C173.283829,161.918869 172.775269,160.311661 167.419846,152.715225 
	C163.405472,147.020996 158.001190,140.709381 163.963074,132.670044 
	C165.440842,130.677322 165.087830,127.396240 166.391418,125.188667 
	C168.306808,121.945015 170.955078,119.134109 173.663422,116.381134 
	C174.054276,116.833313 174.072800,117.043221 174.091324,117.253136 
	C172.482407,121.432571 170.866272,125.609245 169.269547,129.793335 
	C168.862534,130.859863 168.720795,132.084290 168.111404,133.008072 
	C162.811188,141.042755 163.692810,141.506088 169.762573,149.965408 
	C171.782013,152.779846 173.857529,155.640808 175.262344,158.770081 
	C175.891861,160.172348 175.560928,162.816650 174.579224,163.981674 
	C171.439972,167.707153 167.728683,170.943771 164.362259,174.486969 
	C161.992935,176.980713 159.367935,176.995178 156.794067,175.301559 
	C151.583389,171.872894 146.524338,168.213776 141.185333,164.397476 
z"/>
<path fill="#2F425F" opacity="1.000000" stroke="none" 
	d="
M122.378532,161.301254 
	C122.638443,166.189545 124.189537,167.221741 128.924805,166.047318 
	C132.414200,165.181900 135.982376,164.634048 139.849442,164.020538 
	C134.933655,166.719452 129.716309,169.410858 124.415749,171.926956 
	C122.660912,172.759933 120.691742,173.141388 118.508507,173.912048 
	C117.918785,173.855667 117.641136,173.616547 117.271706,172.878998 
	C117.621254,170.706146 118.062584,169.031754 118.503906,167.357346 
	C116.623161,167.200394 114.736641,166.872391 112.863297,166.935501 
	C111.060623,166.996246 109.246674,167.803879 107.481888,167.675507 
	C104.121803,167.431076 100.793228,166.753494 97.857010,166.187927 
	C106.301147,164.513809 114.339836,162.907532 122.378532,161.301254 
z"/>
<path fill="#324461" opacity="1.000000" stroke="none" 
	d="
M36.076996,86.981621 
	C34.994587,83.721436 33.912170,80.461243 32.513725,77.096443 
	C33.170135,74.067253 33.474655,70.631157 35.245911,68.318352 
	C39.746849,62.441288 38.764763,56.800205 35.786835,50.525688 
	C41.048145,52.877270 42.671055,59.110104 39.753468,64.970474 
	C38.539516,67.408867 37.739208,70.053192 36.210266,73.998810 
	C38.888855,73.122177 40.163731,72.704948 41.636971,72.520721 
	C39.915890,77.496361 37.996445,82.238991 36.076996,86.981621 
z"/>
<path fill="#34455E" opacity="1.000000" stroke="none" 
	d="
M174.881348,85.554047 
	C175.070099,86.032249 175.054779,86.225166 174.673782,86.654419 
	C172.220505,85.573021 170.132904,84.255280 168.045288,82.937546 
	C166.715530,77.509315 165.385773,72.081085 164.060730,66.222939 
	C166.529068,70.788216 168.928116,75.816910 171.493057,80.759521 
	C172.332779,82.377640 173.603592,83.772041 174.881348,85.554047 
z"/>
<path fill="#324461" opacity="1.000000" stroke="none" 
	d="
M34.715118,34.174156 
	C35.280060,39.170479 35.549202,44.308239 35.797424,49.853825 
	C34.554188,48.956520 33.210323,47.744118 32.131302,46.329674 
	C28.170023,41.136997 28.827816,37.858013 34.715118,34.174156 
z"/>
<path fill="#36455D" opacity="1.000000" stroke="none" 
	d="
M16.999447,89.951721 
	C16.555094,89.959297 16.110741,89.966881 15.333079,89.980423 
	C14.469944,89.485550 13.940117,88.984711 13.214087,88.292587 
	C17.937162,87.000656 22.939514,86.162193 27.726898,84.645302 
	C29.232811,84.168144 30.161715,81.869942 31.622030,80.181274 
	C32.702564,85.685738 29.522959,88.536041 21.153164,88.861786 
	C19.321331,89.146164 18.160389,89.548935 16.999447,89.951721 
z"/>
<path fill="#36465F" opacity="1.000000" stroke="none" 
	d="
M72.542297,33.895096 
	C69.542076,35.807301 66.397675,38.512653 62.765869,39.621235 
	C59.209232,40.706871 58.346462,37.300804 57.992031,34.162392 
	C62.740749,37.176617 67.457932,36.888824 72.542297,33.895096 
z"/>
<path fill="#384862" opacity="1.000000" stroke="none" 
	d="
M163.915466,64.700096 
	C159.621964,62.334095 158.936447,59.280052 162.102142,54.217659 
	C163.345535,52.229286 165.467377,50.790241 167.531128,49.040710 
	C166.619354,51.377033 165.721512,54.070942 164.027069,56.099430 
	C161.590485,59.016331 161.768967,61.547600 163.915466,64.700096 
z"/>
<path fill="#38485D" opacity="1.000000" stroke="none" 
	d="
M133.973999,36.671135 
	C128.937836,35.588531 123.668839,34.273094 118.459244,32.753975 
	C117.779839,32.555859 117.405884,31.310240 116.949760,30.281105 
	C122.592583,32.133274 128.176102,34.254150 133.973999,36.671135 
z"/>
<path fill="#38485D" opacity="1.000000" stroke="none" 
	d="
M143.678711,33.084503 
	C142.747528,39.513023 140.957642,40.500340 135.164398,37.369297 
	C137.767075,35.833370 140.577545,34.557587 143.678711,33.084503 
z"/>
<path fill="#35435A" opacity="1.000000" stroke="none" 
	d="
M174.406433,117.189819 
	C174.072800,117.043221 174.054276,116.833313 174.007751,116.308502 
	C178.463760,115.258530 182.947784,114.523483 187.786850,113.970795 
	C183.668442,115.144272 179.194992,116.135384 174.406433,117.189819 
z"/>
<path fill="#36465F" opacity="1.000000" stroke="none" 
	d="
M84.530579,28.973145 
	C83.405388,35.407089 77.937035,33.279564 73.302750,33.891373 
	C75.375252,32.859493 77.901466,31.891951 80.403992,30.866585 
	C81.689224,30.339979 82.932190,29.710182 84.530579,28.973145 
z"/>
<path fill="#36465F" opacity="1.000000" stroke="none" 
	d="
M86.621002,21.172520 
	C89.581146,24.105862 89.100510,26.707937 85.117599,28.792990 
	C85.286682,26.379093 85.808662,23.900919 86.621002,21.172520 
z"/>
<path fill="#36465F" opacity="1.000000" stroke="none" 
	d="
M99.479691,7.136669 
	C96.559357,8.350924 93.189003,9.515667 89.511856,10.833313 
	C88.605064,8.434295 89.268280,6.931545 92.237686,7.068633 
	C94.497154,7.172945 96.765366,7.087935 99.479691,7.136669 
z"/>
<path fill="#36465F" opacity="1.000000" stroke="none" 
	d="
M112.097717,8.611174 
	C109.887901,8.472820 107.631119,7.998093 105.205566,7.344063 
	C107.374786,7.534775 109.712776,7.904787 112.097717,8.611174 
z"/>
<path fill="#36465F" opacity="1.000000" stroke="none" 
	d="
M88.636406,11.962549 
	C88.549721,13.682916 88.156654,15.592262 87.504181,17.739210 
	C87.606529,16.035051 87.968269,14.093290 88.636406,11.962549 
z"/>
<path fill="#000000" opacity="1.000000" stroke="none" 
	d="
M122.601524,161.352417 
	C114.339836,162.907532 106.301147,164.513809 97.639450,166.139511 
	C96.459702,166.217270 95.902962,166.275620 95.346222,166.333954 
	C91.273331,165.078873 87.231941,163.708084 83.121895,162.589508 
	C68.379547,158.577377 56.981209,150.099030 48.814793,137.215240 
	C48.558949,136.811600 48.096939,136.538620 47.436966,135.637772 
	C44.459591,129.012634 41.776291,122.954430 39.092991,116.896233 
	C39.092991,116.896233 39.048824,116.958832 39.080330,116.539032 
	C36.880772,101.918732 37.372452,88.043488 44.005226,74.892685 
	C45.665001,71.601845 47.282974,68.289925 48.920158,64.987694 
	C48.920162,64.987694 48.986500,64.996346 49.300995,64.831497 
	C50.783150,63.527103 52.084259,62.494549 53.097271,61.231018 
	C60.954056,51.431267 71.310913,45.483967 83.015640,41.525963 
	C84.778671,40.929783 86.393059,39.893993 88.076210,39.061562 
	C88.076210,39.061562 88.561966,39.004166 88.897186,39.144501 
	C89.509659,39.192848 89.786911,39.100861 90.064163,39.008873 
	C90.064163,39.008869 90.440559,39.087406 90.814697,39.343361 
	C91.853806,39.082779 92.518776,38.566242 93.183746,38.049706 
	C98.114685,38.040989 103.045624,38.032269 108.586273,38.326595 
	C111.380653,39.329224 113.622513,39.888912 115.739410,40.754272 
	C122.442200,43.494297 129.807220,45.329582 135.621887,49.375031 
	C147.024124,57.307899 155.087860,68.433052 160.876297,81.110283 
	C160.876297,81.110283 160.862305,81.047478 160.882782,81.388214 
	C160.969620,82.152214 161.035965,82.575485 161.102325,82.998749 
	C161.389999,83.772118 161.677689,84.545486 161.966354,86.031700 
	C162.680817,89.236984 164.083893,91.758339 163.980804,94.216537 
	C163.647552,102.163986 162.760742,110.088219 162.087219,118.021400 
	C161.714752,119.691757 161.342255,121.362114 160.623962,123.443802 
	C158.433517,127.489105 156.801544,131.252640 154.687485,134.722458 
	C152.333084,138.586700 149.539993,142.183640 146.937881,145.896957 
	C146.469528,146.226364 146.001175,146.555786 144.947357,147.083435 
	C137.222076,152.136368 130.082230,156.991058 122.942383,161.845734 
	C122.942383,161.845734 122.824516,161.403595 122.601524,161.352417 
M138.097885,80.957680 
	C138.097885,80.957680 138.127930,80.881714 137.774368,80.294083 
	C134.153320,76.910225 130.645325,73.389862 126.835220,70.234253 
	C125.827332,69.399498 122.724770,67.863548 123.478012,72.443527 
	C120.538223,75.637299 120.591949,78.387733 124.386909,80.991318 
	C125.838882,81.987457 126.829002,83.656784 128.185791,85.692703 
	C132.793823,92.043747 137.035248,98.555176 135.989670,106.950897 
	C135.485321,111.000648 134.744629,115.020958 133.548386,119.427444 
	C130.643265,122.903351 127.738144,126.379250 124.882370,129.931442 
	C124.882370,129.931442 124.875618,129.840836 124.168518,129.931351 
	C122.867813,130.623489 121.459686,131.169037 120.283409,132.030960 
	C110.914566,138.896164 100.487778,140.441498 89.700264,136.950867 
	C84.232071,135.181458 79.348289,131.605972 74.251938,128.808578 
	C74.251938,128.808578 74.212105,128.757904 73.891266,128.169998 
	C64.928055,118.518524 61.847942,107.281395 66.769005,94.988770 
	C69.014206,89.380348 73.038887,84.246727 77.148216,79.704521 
	C79.951950,76.605453 77.716049,74.902908 76.394669,73.521820 
	C75.306564,72.384544 72.210304,71.658882 71.045990,72.396202 
	C67.941910,74.361900 64.957542,76.875946 62.727402,79.786407 
	C58.301632,85.562317 55.770229,92.074379 54.705757,99.532173 
	C51.798508,119.900734 61.798931,137.438751 81.348137,145.634949 
	C81.905167,145.718933 82.462196,145.802917 83.668251,146.235947 
	C86.476349,146.881592 89.284447,147.527237 92.898949,148.077805 
	C94.251572,148.083023 95.604187,148.088242 97.557281,148.639862 
	C105.732254,150.080368 113.405998,147.773788 120.672028,144.672165 
	C134.626617,138.715408 142.275650,127.342125 145.925735,112.995598 
	C148.763550,101.841637 146.062820,91.878578 139.146057,82.456490 
	C139.146057,82.456490 139.063385,82.061501 139.009857,81.468620 
	C138.680542,81.288307 138.351227,81.107986 138.097885,80.957680 
M104.116936,56.011292 
	C101.400887,56.049313 98.684837,56.087334 95.262032,56.339638 
	C95.174469,59.001133 95.014687,61.662529 95.011169,64.324135 
	C94.989647,80.629646 94.972679,96.935349 95.051247,113.240524 
	C95.059494,114.953003 95.700745,116.662437 96.529320,118.884842 
	C99.326065,118.634224 102.122810,118.383614 105.745842,117.758591 
	C105.827927,97.673248 105.916603,77.587906 105.951141,57.502483 
	C105.951942,57.037434 105.342476,56.571339 104.116936,56.011292 
z"/>
<path fill="#394761" opacity="1.000000" stroke="none" 
	d="
M160.956360,80.729225 
	C155.087860,68.433052 147.024124,57.307899 135.621887,49.375031 
	C129.807220,45.329582 122.442200,43.494297 115.739410,40.754272 
	C113.622513,39.888912 111.380653,39.329224 109.045349,38.350403 
	C110.418556,37.735382 112.066261,36.842468 113.447212,37.149464 
	C128.298935,40.451099 141.201370,47.297863 150.950439,59.194218 
	C154.604370,63.652943 157.783035,68.569466 160.619583,73.592812 
	C161.617294,75.359680 160.945786,78.069115 160.956360,80.729225 
z"/>
<path fill="#394862" opacity="1.000000" stroke="none" 
	d="
M87.718185,38.900970 
	C86.393059,39.893993 84.778671,40.929783 83.015640,41.525963 
	C71.310913,45.483967 60.954056,51.431267 53.097271,61.231018 
	C52.084259,62.494549 50.783150,63.527103 49.301331,64.798050 
	C48.860100,56.616211 55.779491,53.584213 60.857075,49.206188 
	C61.689056,48.488834 63.370148,48.537552 63.907139,47.731468 
	C68.115356,41.414467 75.700890,41.592987 81.557632,38.498528 
	C83.036400,37.717209 85.402061,38.614475 87.718185,38.900970 
z"/>
<path fill="#38475F" opacity="1.000000" stroke="none" 
	d="
M48.580605,65.058350 
	C47.282974,68.289925 45.665001,71.601845 44.005226,74.892685 
	C37.372452,88.043488 36.880772,101.918732 39.111649,116.561089 
	C37.856590,114.547066 36.601719,112.091194 35.189159,109.322159 
	C35.032238,107.940887 35.033005,106.872772 35.174110,105.079971 
	C35.541538,100.561821 35.768620,96.768356 35.999481,92.562965 
	C36.007641,90.777466 36.012028,89.403893 36.016411,88.030319 
	C36.025913,87.855652 36.035412,87.680984 36.060955,87.243973 
	C37.996445,82.238991 39.915890,77.496361 41.925568,72.401314 
	C44.090885,69.742256 46.165966,67.435631 48.580605,65.058350 
z"/>
<path fill="#253E61" opacity="1.000000" stroke="none" 
	d="
M167.932953,83.184219 
	C170.132904,84.255280 172.220505,85.573021 174.653748,86.944023 
	C173.958679,89.451027 173.517273,92.536682 171.744232,94.218246 
	C168.679352,97.124969 167.847122,99.804008 169.162064,103.817734 
	C170.242630,107.116043 171.682663,111.261856 165.398544,111.593033 
	C165.144073,109.895363 165.349869,108.593658 165.397720,107.286163 
	C165.620636,101.193573 165.799896,95.099380 166.163910,88.838318 
	C166.555542,88.444283 166.767746,88.208420 166.955383,87.730515 
	C166.941132,87.497734 166.913391,87.032135 166.913391,87.032135 
	C167.215790,85.831718 167.518204,84.631310 167.932953,83.184219 
z"/>
<path fill="#394761" opacity="1.000000" stroke="none" 
	d="
M165.994766,89.005760 
	C165.799896,95.099380 165.620636,101.193573 165.397720,107.286163 
	C165.349869,108.593658 165.144073,109.895363 165.002411,111.615295 
	C164.247482,113.952194 163.501144,115.873535 162.421021,117.908134 
	C162.760742,110.088219 163.647552,102.163986 163.980804,94.216537 
	C164.083893,91.758339 162.680817,89.236984 162.010498,86.341110 
	C163.445374,86.246750 164.837082,86.555832 166.571091,86.948524 
	C166.913391,87.032135 166.941132,87.497734 166.785736,87.897476 
	C166.407410,88.523468 166.195557,88.759651 165.994766,89.005760 
z"/>
<path fill="#394862" opacity="1.000000" stroke="none" 
	d="
M92.865402,38.142174 
	C92.518776,38.566242 91.853806,39.082779 91.000549,39.392578 
	C91.390518,38.868778 91.968788,38.551708 92.865402,38.142174 
z"/>
<path fill="#394761" opacity="1.000000" stroke="none" 
	d="
M161.244965,82.864777 
	C161.035965,82.575485 160.969620,82.152214 160.858337,81.409111 
	C161.004807,81.636452 161.196213,82.183632 161.244965,82.864777 
z"/>
<path fill="#394862" opacity="1.000000" stroke="none" 
	d="
M89.810699,39.005547 
	C89.786911,39.100861 89.509659,39.192848 89.141525,39.133972 
	C89.219513,38.989479 89.388382,38.995850 89.810699,39.005547 
z"/>
<path fill="#2B3F66" opacity="1.000000" stroke="none" 
	d="
M94.826340,166.384857 
	C95.902962,166.275620 96.459702,166.217270 97.234009,166.207352 
	C100.793228,166.753494 104.121803,167.431076 107.481888,167.675507 
	C109.246674,167.803879 111.060623,166.996246 112.863297,166.935501 
	C114.736641,166.872391 116.623161,167.200394 118.503906,167.357346 
	C118.062584,169.031754 117.621254,170.706146 117.070755,172.691528 
	C113.678192,173.374832 110.394791,173.747177 107.111397,174.119507 
	C107.033318,174.620056 106.955246,175.120590 106.877167,175.621124 
	C109.928192,177.633987 113.711342,178.617615 112.683441,183.861023 
	C110.823647,193.347992 101.271439,198.163528 93.318855,192.275497 
	C90.784195,190.398865 90.005890,185.706787 89.151154,182.129257 
	C88.298698,178.561279 89.609306,173.737411 87.657104,171.384262 
	C85.795807,169.140701 80.922920,169.466690 77.426712,168.476761 
	C75.808746,168.018661 74.316154,167.117722 72.766724,166.417542 
	C72.901215,165.742523 73.035706,165.067520 73.170189,164.392502 
	C80.215614,165.073593 87.261032,165.754669 94.826340,166.384857 
z"/>
<path fill="#38475F" opacity="1.000000" stroke="none" 
	d="
M39.072617,117.329491 
	C41.776291,122.954430 44.459591,129.012634 47.164047,135.430527 
	C45.647041,134.700333 43.219055,133.909592 42.733681,132.465775 
	C41.128777,127.691765 40.225067,122.682022 39.072617,117.329491 
z"/>
<path fill="#2F425F" opacity="1.000000" stroke="none" 
	d="
M123.363098,161.839691 
	C130.082230,156.991058 137.222076,152.136368 144.689072,147.208832 
	C143.582825,153.462769 135.983170,160.382019 129.698120,161.098679 
	C127.724419,161.323730 125.755127,161.587555 123.363098,161.839691 
z"/>
<path fill="#2F425F" opacity="1.000000" stroke="none" 
	d="
M147.192047,145.965424 
	C149.539993,142.183640 152.333084,138.586700 154.687485,134.722458 
	C156.801544,131.252640 158.433517,127.489105 160.597290,123.815338 
	C160.808380,133.846878 155.758133,140.927322 147.192047,145.965424 
z"/>
<path fill="#2F4161" opacity="1.000000" stroke="none" 
	d="
M35.995705,92.974892 
	C35.768620,96.768356 35.541538,100.561821 35.173473,104.679703 
	C34.693535,100.623520 34.354576,96.242920 34.219563,91.633957 
	C34.947575,91.928696 35.471642,92.451797 35.995705,92.974892 
z"/>
<path fill="#324461" opacity="1.000000" stroke="none" 
	d="
M35.999481,92.562965 
	C35.471642,92.451797 34.947575,91.928696 34.227516,91.210037 
	C34.516640,90.128838 35.001755,89.243202 35.751640,88.193939 
	C36.012028,89.403893 36.007641,90.777466 35.999481,92.562965 
z"/>
<path fill="#2F4161" opacity="1.000000" stroke="none" 
	d="
M17.348156,89.941544 
	C18.160389,89.548935 19.321331,89.146164 20.739975,88.865616 
	C19.897406,89.302353 18.797134,89.616867 17.348156,89.941544 
z"/>
<path fill="#304260" opacity="1.000000" stroke="none" 
	d="
M80.927483,145.249176 
	C61.798931,137.438751 51.798508,119.900734 54.705757,99.532173 
	C55.770229,92.074379 58.301632,85.562317 62.727402,79.786407 
	C64.957542,76.875946 67.941910,74.361900 71.045990,72.396202 
	C72.210304,71.658882 75.306564,72.384544 76.394669,73.521820 
	C77.716049,74.902908 79.951950,76.605453 77.148216,79.704521 
	C73.038887,84.246727 69.014206,89.380348 66.769005,94.988770 
	C61.847942,107.281395 64.928055,118.518524 73.667664,128.477737 
	C71.814651,127.670219 69.713203,126.887535 68.647598,125.375046 
	C65.859917,121.418320 63.524876,117.142700 61.007999,112.527290 
	C61.006611,107.075874 61.006611,102.091370 61.006611,97.106865 
	C56.293671,101.482475 56.019081,108.783363 59.002068,113.442101 
	C59.504330,126.071526 66.344513,133.764725 76.612473,139.345474 
	C78.548477,140.397736 79.514091,143.235382 80.927483,145.249176 
z"/>
<path fill="#2F4363" opacity="1.000000" stroke="none" 
	d="
M61.009388,112.994202 
	C63.524876,117.142700 65.859917,121.418320 68.647598,125.375046 
	C69.713203,126.887535 71.814651,127.670219 73.828079,128.771698 
	C74.212105,128.757904 74.251938,128.808578 74.203049,129.225800 
	C73.642731,134.753204 78.424774,134.659363 81.091499,136.109894 
	C87.405945,139.544510 93.815323,143.280746 101.608604,141.702423 
	C105.160851,140.983002 108.755722,140.443344 112.351204,139.975433 
	C117.543823,139.299667 123.976364,134.171890 124.875618,129.840836 
	C124.875618,129.840836 124.882370,129.931442 125.244934,129.909485 
	C127.733765,128.925583 129.860031,127.963623 132.086273,127.266129 
	C132.457886,128.025269 132.729553,128.519958 132.859894,129.321716 
	C130.017715,133.589447 128.473526,138.634048 122.986732,139.975861 
	C122.971924,139.953842 122.997955,140.001541 122.712143,140.190643 
	C118.263428,142.217712 114.223885,144.460327 109.902290,145.777725 
	C105.738724,147.046936 101.283752,147.360199 96.956810,148.093445 
	C95.604187,148.088242 94.251572,148.083023 92.275948,147.854874 
	C89.067871,145.601440 86.656647,142.710831 83.019226,145.886917 
	C82.462196,145.802917 81.905167,145.718933 81.137810,145.442062 
	C79.514091,143.235382 78.548477,140.397736 76.612473,139.345474 
	C66.344513,133.764725 59.504330,126.071526 59.337288,113.435776 
	C60.115273,113.006912 60.562332,113.000557 61.009388,112.994202 
z"/>
<path fill="#2A4062" opacity="1.000000" stroke="none" 
	d="
M104.919556,118.132996 
	C102.122810,118.383614 99.326065,118.634224 96.401398,118.302925 
	C96.316757,117.495605 96.360054,117.270203 96.512039,116.647713 
	C96.747482,99.510635 96.874077,82.770653 97.001106,66.030663 
	C97.056534,58.726711 97.965401,58.144245 104.868813,61.491730 
	C104.932732,80.679131 104.926140,99.406059 104.919556,118.132996 
z"/>
<path fill="#2F4363" opacity="1.000000" stroke="none" 
	d="
M134.110947,119.054604 
	C134.744629,115.020958 135.485321,111.000648 135.989670,106.950897 
	C137.035248,98.555176 132.793823,92.043747 128.362137,85.353516 
	C132.099442,82.722313 129.599670,81.110733 128.092239,79.075478 
	C127.036667,77.650314 126.684250,75.704353 126.363724,74.060440 
	C128.188782,75.080040 129.638000,76.081291 131.154022,76.968407 
	C133.454300,78.314476 135.800964,79.581261 138.127930,80.881714 
	C138.127930,80.881714 138.097885,80.957680 138.213928,81.148628 
	C138.574448,81.580223 138.818909,81.820862 139.063385,82.061501 
	C139.063385,82.061501 139.146057,82.456490 139.006439,82.980453 
	C139.623611,86.367424 139.841217,89.530121 141.235611,92.038719 
	C145.905685,100.440559 144.398193,108.994553 142.381882,117.556427 
	C142.066238,118.896706 140.174103,119.865723 138.611023,121.002678 
	C137.146683,120.993294 136.082275,120.987640 134.930328,120.729462 
	C134.598862,120.002815 134.354904,119.528709 134.110947,119.054604 
z"/>
<path fill="#304260" opacity="1.000000" stroke="none" 
	d="
M139.010941,121.006409 
	C140.174103,119.865723 142.066238,118.896706 142.381882,117.556427 
	C144.398193,108.994553 145.905685,100.440559 141.235611,92.038719 
	C139.841217,89.530121 139.623611,86.367424 139.051727,83.177078 
	C146.062820,91.878578 148.763550,101.841637 145.925735,112.995598 
	C142.275650,127.342125 134.626617,138.715408 120.672028,144.672165 
	C113.405998,147.773788 105.732254,150.080368 97.257050,148.366669 
	C101.283752,147.360199 105.738724,147.046936 109.902290,145.777725 
	C114.223885,144.460327 118.263428,142.217712 122.713165,140.189865 
	C123.000000,140.000000 123.001541,139.997879 123.001541,139.997879 
	C128.473526,138.634048 130.017715,133.589447 133.138107,129.245483 
	C138.376877,128.327164 137.189529,123.622482 139.010941,121.006409 
z"/>
<path fill="#304260" opacity="1.000000" stroke="none" 
	d="
M124.522064,129.886093 
	C123.976364,134.171890 117.543823,139.299667 112.351204,139.975433 
	C108.755722,140.443344 105.160851,140.983002 101.608604,141.702423 
	C93.815323,143.280746 87.405945,139.544510 81.091499,136.109894 
	C78.424774,134.659363 73.642731,134.753204 74.177231,129.245010 
	C79.348289,131.605972 84.232071,135.181458 89.700264,136.950867 
	C100.487778,140.441498 110.914566,138.896164 120.283409,132.030960 
	C121.459686,131.169037 122.867813,130.623489 124.522064,129.886093 
z"/>
<path fill="#313C53" opacity="1.000000" stroke="none" 
	d="
M104.798302,61.031261 
	C97.965401,58.144245 97.056534,58.726711 97.001106,66.030663 
	C96.874077,82.770653 96.747482,99.510635 96.364372,116.192833 
	C96.061615,96.131813 96.015198,76.128586 95.968781,56.125355 
	C98.684837,56.087334 101.400887,56.049313 104.537064,56.466530 
	C104.904228,58.291603 104.851265,59.661430 104.798302,61.031261 
z"/>
<path fill="#808798" opacity="1.000000" stroke="none" 
	d="
M95.615402,56.232498 
	C96.015198,76.128586 96.061615,96.131813 96.255692,116.589920 
	C96.360054,117.270203 96.316757,117.495605 96.160896,118.047150 
	C95.700745,116.662437 95.059494,114.953003 95.051247,113.240524 
	C94.972679,96.935349 94.989647,80.629646 95.011169,64.324135 
	C95.014687,61.662529 95.174469,59.001133 95.615402,56.232498 
z"/>
<path fill="#B7C3CF" opacity="1.000000" stroke="none" 
	d="
M104.868813,61.491730 
	C104.851265,59.661430 104.904228,58.291603 104.987427,56.513756 
	C105.342476,56.571339 105.951942,57.037434 105.951141,57.502483 
	C105.916603,77.587906 105.827927,97.673248 105.332703,117.945793 
	C104.926140,99.406059 104.932732,80.679131 104.868813,61.491730 
z"/>
<path fill="#2B3A55" opacity="1.000000" stroke="none" 
	d="
M126.017792,73.990982 
	C126.684250,75.704353 127.036667,77.650314 128.092239,79.075478 
	C129.599670,81.110733 132.099442,82.722313 128.284027,85.016846 
	C126.829002,83.656784 125.838882,81.987457 124.386909,80.991318 
	C120.591949,78.387733 120.538223,75.637299 123.975891,72.380524 
	C124.988449,72.875343 125.503120,73.433159 126.017792,73.990982 
z"/>
<path fill="#384864" opacity="1.000000" stroke="none" 
	d="
M126.363724,74.060440 
	C125.503120,73.433159 124.988449,72.875343 124.235458,72.159294 
	C122.724770,67.863548 125.827332,69.399498 126.835220,70.234253 
	C130.645325,73.389862 134.153320,76.910225 137.951141,80.587898 
	C135.800964,79.581261 133.454300,78.314476 131.154022,76.968407 
	C129.638000,76.081291 128.188782,75.080040 126.363724,74.060440 
z"/>
<path fill="#304260" opacity="1.000000" stroke="none" 
	d="
M133.829666,119.241028 
	C134.354904,119.528709 134.598862,120.002815 134.922775,121.066223 
	C134.996674,122.104103 134.990631,122.552673 134.700043,123.150475 
	C133.611649,124.528465 132.807800,125.757233 132.001831,126.991463 
	C131.999725,126.996925 131.986313,127.001678 131.986313,127.001678 
	C129.860031,127.963623 127.733765,128.925583 125.220261,129.871338 
	C127.738144,126.379250 130.643265,122.903351 133.829666,119.241028 
z"/>
<path fill="#304260" opacity="1.000000" stroke="none" 
	d="
M83.343735,146.061432 
	C86.656647,142.710831 89.067871,145.601440 91.872742,147.902420 
	C89.284447,147.527237 86.476349,146.881592 83.343735,146.061432 
z"/>
<path fill="#384864" opacity="1.000000" stroke="none" 
	d="
M139.036621,81.765060 
	C138.818909,81.820862 138.574448,81.580223 138.175934,81.133621 
	C138.351227,81.107986 138.680542,81.288307 139.036621,81.765060 
z"/>
<path fill="#2C3F64" opacity="1.000000" stroke="none" 
	d="
M166.163910,88.838318 
	C166.195557,88.759651 166.407410,88.523468 166.799988,88.130257 
	C166.767746,88.208420 166.555542,88.444283 166.163910,88.838318 
z"/>
<path fill="#2B3E68" opacity="1.000000" stroke="none" 
	d="
M61.007999,112.527298 
	C60.562332,113.000557 60.115273,113.006912 59.333000,113.019592 
	C56.019081,108.783363 56.293671,101.482475 61.006611,97.106865 
	C61.006611,102.091370 61.006611,107.075874 61.007999,112.527298 
z"/>
<path fill="#2A4165" opacity="1.000000" stroke="none" 
	d="
M134.984589,123.001251 
	C134.990631,122.552673 134.996674,122.104103 135.010284,121.318756 
	C136.082275,120.987640 137.146683,120.993294 138.611023,121.002678 
	C137.189529,123.622482 138.376877,128.327164 133.279419,128.938431 
	C132.729553,128.519958 132.457886,128.025269 132.086273,127.266129 
	C131.986313,127.001678 131.999725,126.996925 132.331360,126.901108 
	C133.436859,125.537270 134.210724,124.269264 134.984589,123.001251 
z"/>
<path fill="#304260" opacity="1.000000" stroke="none" 
	d="
M122.998978,140.000763 
	C122.997955,140.001541 122.971924,139.953842 122.986732,139.975861 
	C123.001541,139.997879 123.000000,140.000000 122.998978,140.000763 
z"/>
<path fill="#2F4363" opacity="1.000000" stroke="none" 
	d="
M134.700043,123.150482 
	C134.210724,124.269264 133.436859,125.537270 132.333481,126.895645 
	C132.807800,125.757233 133.611649,124.528465 134.700043,123.150482 
z"/>
</svg>